<?xml version="1.0" encoding="UTF-8"?>
<svg version="1.1" xmlns="http://www.w3.org/2000/svg" width="281" height="300">
<path d="M0 0 C26.73 0 53.46 0 81 0 C81 79.53 81 159.06 81 241 C120.93 241 160.86 241 202 241 C197.38445443 259.46218227 197.38445443 259.46218227 195.01953125 267.71484375 C194.63204964 269.07567833 194.63204964 269.07567833 194.23674011 270.46400452 C193.70121026 272.34185559 193.16437609 274.21933521 192.6262207 276.09643555 C191.79910557 278.98426598 190.97847618 281.87389143 190.15820312 284.76367188 C189.63319577 286.60167202 189.10781957 288.43956686 188.58203125 290.27734375 C188.3372554 291.14068832 188.09247955 292.0040329 187.84028625 292.89353943 C186.1147849 298.8852151 186.1147849 298.8852151 185 300 C182.60931863 300.09765691 180.24756733 300.12996979 177.85643005 300.12025452 C177.10011844 300.12110894 176.34380683 300.12196337 175.56457669 300.12284368 C173.01104518 300.12450076 170.45757827 300.11897342 167.90405273 300.11352539 C166.08126833 300.11324354 164.2584838 300.11340121 162.43569946 300.1139679 C157.47103112 300.11425596 152.50638672 300.10835779 147.54172397 300.10139394 C142.35936525 300.09516188 137.17700605 300.09455672 131.99464417 300.09336853 C122.17382442 300.09025478 112.35301574 300.08204079 102.53220087 300.07201904 C91.35464094 300.06085927 80.17708048 300.0553478 68.99951637 300.05032361 C45.99967143 300.03985822 22.99983633 300.02225792 0 300 C1.39219385 296.87336654 2.78944683 293.74901738 4.1875 290.625 C4.57486328 289.75488281 4.96222656 288.88476562 5.36132812 287.98828125 C5.75126953 287.11816406 6.14121094 286.24804688 6.54296875 285.3515625 C6.89383545 284.56604004 7.24470215 283.78051758 7.60620117 282.97119141 C8.42860328 281.21805888 9.29210759 279.48164735 10.24279195 277.79463279 C13.61872354 271.63125464 14.73503384 266.85995401 14.69548035 259.87454224 C14.70963039 258.90570126 14.72378044 257.93686029 14.73835927 256.9386605 C14.77911128 253.71814299 14.7846291 250.4985882 14.78979492 247.27783203 C14.81132449 244.95726692 14.83482938 242.63671943 14.8601532 240.31619263 C14.92129649 234.02584073 14.94957678 227.73577031 14.96801162 221.4451623 C14.98048499 217.50268038 14.99905033 213.5602725 15.01952553 209.61782455 C15.07529548 198.66293779 15.12295024 187.7081148 15.13602734 176.75308418 C15.1368736 176.05325243 15.13771987 175.35342068 15.13859178 174.63238191 C15.1402822 173.21410934 15.14197197 171.79583677 15.1436611 170.37756421 C15.14451222 169.67369556 15.14536333 168.96982691 15.14624023 168.24462891 C15.14708507 167.53988107 15.14792991 166.83513323 15.14880035 166.1090294 C15.16412893 154.73390378 15.24329497 143.36021725 15.35081669 131.98562528 C15.46078709 120.2555816 15.5168147 108.52625128 15.5205906 96.79568374 C15.52389496 90.23037806 15.55015864 83.66666938 15.6330471 77.10181046 C16.58705704 38.46616939 16.58705704 38.46616939 1.26067066 3.92642021 C0 2 0 2 0 0 Z " fill="#C28F2C" transform="translate(14,0)"/>
<path d="M0 0 C1.09570312 0.51304688 2.19140625 1.02609375 3.3203125 1.5546875 C27.68810866 13.82666195 46.54717893 35.49728022 55.53515625 61.23046875 C64.1622497 87.77396965 62.55882969 116.27947213 50.1875 141.375 C46.7601542 148.05284867 42.76548325 154.18801317 38 160 C37.55275794 160.65155815 37.10551588 161.3031163 36.64472103 161.97441864 C34.30251036 165.11094739 32.42402207 167.57013937 28.58938789 168.72767639 C25.70291078 168.98341682 22.9126835 168.99037943 20.01586914 168.90820312 C18.91477279 168.9091674 17.81367643 168.91013168 16.67921352 168.91112518 C13.12985927 168.90517372 9.58390553 168.84436239 6.03515625 168.78125 C3.83819191 168.76948118 1.64120515 168.76132378 -0.55578613 168.75683594 C-8.68336716 168.71496817 -16.81046733 168.6032773 -24.9375 168.5 C-52.1934375 168.2525 -52.1934375 168.2525 -80 168 C-80 110.91 -80 53.82 -80 -5 C-52.43295411 -12.35121224 -26.11086409 -12.25611988 0 0 Z " fill="#C28F2C" transform="translate(187,62)"/>
<path d="M0 0 C0.66515625 0.17660156 1.3303125 0.35320313 2.015625 0.53515625 C22.77492929 6.23130682 40.71065075 17.18890357 57 31 C57.65871094 31.53496094 58.31742188 32.06992187 58.99609375 32.62109375 C63.51873894 36.33792243 67.29510608 40.47510944 71 45 C71.77472656 45.93714844 72.54945313 46.87429687 73.34765625 47.83984375 C85.04738902 62.31652033 93.3828228 78.81083645 98.75 96.625 C98.94883789 97.28105225 99.14767578 97.93710449 99.35253906 98.61303711 C102.70128262 110.30922761 103.40851419 121.90769088 103.375 134 C103.37412384 134.77279297 103.37324768 135.54558594 103.37234497 136.34179688 C103.23314035 173.61202717 88.6934802 205.37362491 63 232 C62.32324219 232.72832031 61.64648438 233.45664062 60.94921875 234.20703125 C55.57589938 239.84734786 49.48422468 244.69048452 43 249 C42.34 249 41.68 249 41 249 C42.26699882 243.64870064 43.61875847 238.32264342 45 233 C45.25201172 232.01515625 45.50402344 231.0303125 45.76367188 230.015625 C46.58811635 226.83647219 47.44680279 223.66814548 48.3125 220.5 C48.57168213 219.48615234 48.83086426 218.47230469 49.09790039 217.42773438 C50.80165911 211.33821633 52.86762792 207.42517745 57.25415039 202.87744141 C60.04430639 199.87697998 62.02660021 196.47559289 64.0625 192.9375 C64.48805176 192.20144531 64.91360352 191.46539062 65.35205078 190.70703125 C73.45707019 176.363827 79.38369453 159.61456828 80 143 C80.0515625 141.72253906 80.103125 140.44507813 80.15625 139.12890625 C81.01827239 106.92289114 69.7522512 77.22004228 47.71484375 53.67211914 C27.41760794 32.76126076 -2.07708699 19.64667143 -31.21484375 18.796875 C-41.95690671 18.65476938 -52.0852836 19.08978364 -62.6015625 21.34375 C-66 22 -66 22 -71 22 C-71 14.41 -71 6.82 -71 -1 C-48.19550296 -6.31366921 -22.61278041 -6.18574247 0 0 Z " fill="#C28F2C" transform="translate(178,23)"/>
<path d="M0 0 C0.66 0 1.32 0 2 0 C2 43.89 2 87.78 2 133 C-2.50628803 128.49371197 -2.50628803 128.49371197 -4 124.9453125 C-4.32790527 124.1726001 -4.65581055 123.3998877 -4.99365234 122.60375977 C-5.32574707 121.78576904 -5.6578418 120.96777832 -6 120.125 C-6.34885254 119.27800537 -6.69770508 118.43101074 -7.05712891 117.55834961 C-13.7517056 100.98465588 -16.4243711 84.81366495 -16.375 67 C-16.37412384 66.22720703 -16.37324768 65.45441406 -16.37234497 64.65820312 C-16.28631172 41.62391636 -11.30931161 20.27337428 0 0 Z " fill="#C28F2C" transform="translate(16,91)"/>
</svg>
